<svg width="464" height="287" xmlns="http://www.w3.org/2000/svg"><title>background</title><path fill="none" d="M-1-1h466v289H-1z"/><g><title>Layer 1</title><path fill="#FF6E87" d="M440 288H24c-13.255 0-24-10.745-24-24V24C0 10.745 10.745 0 24 0h416c13.255 0 24 10.745 24 24v240c0 13.255-10.745 24-24 24z"/><circle fill="#ED5F7A" r="16" cy="80" cx="96"/><circle fill="#ED5F7A" r="16" cy="208" cx="96"/><circle fill="#ED5F7A" r="16" cy="88" cx="264"/><circle fill="#ED5F7A" r="16" cy="256" cx="424"/><circle fill="#ED5F7A" r="16" cy="168" cx="352"/><circle fill="#ED5F7A" r="8" cy="96" cx="168"/><circle fill="#ED5F7A" r="8" cy="88" cx="16"/><circle fill="#ED5F7A" r="8" cy="184" cx="448"/><circle fill="#ED5F7A" r="8" cy="160" cx="200"/><circle fill="#ED5F7A" r="8" cy="72" cx="312"/><circle fill="#ED5F7A" r="8" cy="32" cx="384"/><circle fill="#ED5F7A" r="8" cy="216" cx="240"/><circle fill="#ED5F7A" r="8" cy="216" cx="384"/><circle fill="#FF879B" r="8" cy="80" cx="384"/><circle fill="#FF879B" r="8" cy="256" cx="64"/><circle fill="#FF879B" r="8" cy="240" cx="336"/><circle fill="#FF879B" r="8" cy="64" cx="208"/><circle fill="#FF879B" r="8" cy="32" cx="136"/><circle fill="#FF879B" r="8" cy="200" cx="200"/><circle fill="#FF879B" r="8" cy="216" cx="160"/><circle fill="#FF879B" r="8" cy="152" cx="48"/><path fill="#DC506E" d="M416 256H48c-8.824 0-16-7.18-16-16V48c0-8.82 7.176-16 16-16h368c8.824 0 16 7.18 16 16v192c0 8.82-7.176 16-16 16zM48 48v192h368.012L416 48H48z"/><g fill="#FFA0AF"><path d="M118.582 136c-8.04 0-14.582-7.18-14.582-16s6.543-16 14.582-16h13.547c4.417 0 8-3.578 8-8s-3.583-8-8-8H118.58C101.72 88 88 102.352 88 120s13.72 32 30.582 32c8.04 0 14.578 7.18 14.578 16s-6.54 16-14.578 16H96c-4.418 0-8 3.578-8 8s3.582 8 8 8h22.582c16.86 0 30.578-14.352 30.578-32s-13.72-32-30.578-32zM198.453 88h-6.195c-17.645 0-32 14.352-32 32v48c0 17.648 14.355 32 32 32h6.195c17.645 0 32-14.352 32-32v-48c0-17.648-14.355-32-32-32zm16 80c0 8.82-7.176 16-16 16h-6.195c-8.824 0-16-7.18-16-16v-48c0-8.82 7.176-16 16-16h6.195c8.824 0 16 7.18 16 16v48zM289.2 97.875c-1.43-5.914-6.474-9.883-12.556-9.883s-11.125 3.97-12.555 9.875l-22.32 92.25c-1.04 4.297 1.6 8.617 5.894 9.656 4.3 1.07 8.62-1.594 9.66-5.89l3.166-13.087h32.31l3.165 13.086c.887 3.664 4.164 6.117 7.77 6.117.625 0 1.258-.07 1.89-.228 4.294-1.04 6.935-5.36 5.896-9.656l-22.32-92.24zm-24.84 66.922l12.285-50.773 12.284 50.773h-24.57zM348.902 88H330.84c-4.418 0-8 3.578-8 8v96c0 4.422 3.582 8 8 8s8-3.578 8-8v-30.398h10.063c19.352 0 35.098-16.508 35.098-36.805C384 104.507 368.255 88 348.903 88zm0 57.602H338.84V104h10.063c10.53 0 19.098 9.328 19.098 20.797s-8.566 20.805-19.098 20.805z"/></g></g></svg>